# WaveFront *.obj file (generated by CINEMA 4D)

mtllib ./Heart.mtl

v -2.88857135849713 -9.22978296813000 -61.26233774673202
v -25.88760262309646 30.61869258035597 -35.79366510319859
v -23.55489862847122 35.96547689671115 2.90378375096433
v -10.63364922360176 57.96048530223192 60.43046707002206
v 5.68897114162760 -9.69456734379557 64.93807471254156
v -7.49799584795942 50.67197559118819 2.30349234456404
v 9.16080083779925 48.86972576252435 2.45904447499693
v -25.01599462595134 37.45904647316471 36.02398254558230
v 9.31448281947018 -58.85662900187600 -9.17089159677484
v -26.83224816991320 -19.42615976735328 21.06889323692229
v -15.24717078723469 -51.03638589533364 17.48943042394714
v 17.39609400372611 24.45844036428176 64.53164028160396
v 4.44116149242688 68.53767321642283 -34.29274759501717
v 1.13297697626924 69.07319571459584 46.65958063553419
v 10.14896205479655 50.07942681923470 67.51054225352738
v -28.49183999103334 -6.82899866210721 -18.68038593793744
v 25.13836023919818 34.30305645821784 -38.10564486121309
v -6.76720542155070 64.85664965488314 -49.64836484124407
v 16.50865180256809 58.08700525372188 -31.05543389466664
v -12.75915417181730 39.36418295128411 69.87784031580335
v 28.14520378841309 21.19173550659488 31.74803281781000
v -16.29997193360401 58.46000155439481 -29.68692514294094
v 15.58965872479064 54.55488927557772 -48.47609159509356
v 23.24541670343558 36.61003329372173 2.56589281603823
v 29.89714023749457 -3.63647937455772 14.30742931436942
v 27.41713319869552 -20.29754846789052 -13.25551940329818
v 3.81051517896355 62.78852249642938 21.44025438398920
v 2.41677654932771 22.01478421160894 -73.27138670551216
v -30.62913730768827 2.85299850557189 -0.44546023362209
v -24.43907699655764 -35.70407507726907 -8.06994763048209
v -12.94981280470426 -44.64438700798715 -20.43409584019883
v 19.66711633121090 -46.77264931852830 -8.80334118310819
v -7.48802474477119 -10.90116611681543 62.86207015572712
v -14.03540101760079 48.11019984604522 -59.34122026023348
v 24.30185475099662 -1.89431570290418 41.60223564975355
v 9.96682522259357 14.43501794590080 73.97328139034516
v -10.07404561098463 14.43888720880432 -69.10099594489297
v 23.52920579348076 -39.99484251912170 9.43370625437720
v -16.95739210416522 7.94825147803070 -60.10788811249656
v 1.27023632491839 53.72781423399107 -65.19750668622649
v 7.57557877626393 -5.23990040528435 -61.30990935693070
v 15.76340816535710 59.68950262852707 40.40722840950404
v -16.59033798863465 5.22924237982429 62.06527083903541
v -0.22140184129662 46.77716848459406 73.22725471685213
v 28.33815523595820 10.16520270803488 -25.31592255733390
v 18.44288064675518 7.99699503542891 -55.42376384963157
v 3.80303911072973 -70.90184133589037 4.45198827380421
v -26.45368264791457 19.16465840618972 43.53070796964335
v -18.58118488837048 -54.05998771942745 2.40051045244743
v -14.29028187476071 61.27349872906785 33.36409751055449
v 18.84747258078350 -24.01128281980010 37.62189747892067
v -2.38526832151245 -72.06067340587978 1.78338047285356
v -2.52404761153753 22.01060087309719 78.14408931683107
v 12.65176478221030 39.36798002069824 -65.00418272438243
v 20.47962509300269 43.85245902598757 50.86089916236752
# 55 vertices

vn -0.97394166428843 0.15510166330354 -0.16547238018339
vn -0.74432362665450 0.66520525400825 0.05902803438802
vn -0.78323571707875 0.32257887240760 -0.53149288101383
vn 0.00000000000000 0.00000000000000 0.00000000000000
vn -0.17332248449051 -0.56508434012250 -0.80662197150732
vn 0.24443319517891 -0.10393201481482 -0.96408015714004
vn 0.51558478723924 -0.46153898870916 -0.72191002837528
vn 0.08269855185149 0.97842956137794 0.18930542238255
vn 0.23572286479551 0.89932028317741 -0.36831747077529
vn -0.64854338427212 0.75016429162474 -0.12901555831765
vn 0.98988242273410 -0.00779382010109 -0.14167584667228
vn 0.96263647482089 0.20656426337330 -0.17510631753726
vn 0.98394650678102 0.14234153992517 0.10764830609515
vn 0.07376375324417 0.57567968131053 -0.81434133705317
vn 0.28447833209332 0.95588855430381 0.07313788567061
vn 0.75577145895246 0.55095297156734 -0.35392135419326
vn 0.99370240127915 -0.08493775550135 0.07308293496058
vn -0.37480890035906 -0.53190301834166 0.75934015256054
vn -0.23600725818539 -0.14419515424168 0.96099340870634
vn -0.80293514216299 -0.22695535755836 0.55116823489317
vn 0.01860516268730 0.39294435235809 0.91937401740057
vn -0.52032248577631 0.67422304479531 0.52410666534829
vn -0.76132736924664 0.18525145542654 0.62133930754326
vn -0.34058876855508 0.93946224034889 -0.03754982946388
vn 0.41495073305135 0.90879722031193 -0.04362913583204
vn -0.50042190797884 -0.05666978210055 -0.86392502557311
vn 0.43664814158065 -0.81753869954809 0.37545822030605
vn 0.82801254013165 -0.46861866914315 -0.30788273143397
vn 0.92502624068467 -0.34760111672570 0.15329682872073
vn -0.97289502685786 -0.11588788040285 -0.20011313272990
vn -0.83555942974225 -0.22033491783537 -0.50328219057631
vn 0.85217030967903 -0.17016627316136 -0.49482239518834
vn 0.63109397370613 -0.11787991874102 0.76669728127170
vn 0.57437792277187 0.50683489665967 0.64281287274000
vn 0.74455058900051 0.20036688534561 -0.63678688089179
vn -0.99971647107474 0.02381128700529 0.00000854472049
vn -0.89521492097964 0.44531473801161 -0.01688281271188
vn -0.65461501161683 -0.55756600979016 0.51048930575731
vn -0.86384384414159 -0.50226729288414 -0.03874763783150
vn -0.31608502267772 -0.90363813292131 -0.28901277336706
vn 0.80081871126375 0.59685756978154 0.04950184930218
vn 0.77073121211357 -0.41554004263037 0.48301125415946
vn 0.27640424814537 -0.52578208273403 0.80445875785093
vn -0.96365339392241 0.01023322911416 0.26695958009353
vn -0.95323715111667 0.27358200433647 0.12842048370184
vn -0.94911058394855 -0.23575391282180 0.20882813992863
vn 0.92049529102648 0.26178591298459 0.29009749216583
vn 0.88714079993103 0.03336810653431 0.46029096293980
vn 0.96488533146521 -0.20115321403951 -0.16891915700965
vn -0.66717329650012 -0.53979494621957 -0.51332368781595
vn 0.80718266792151 0.59016448133738 0.01272892669859
vn -0.41236577776507 0.83378669280392 -0.36708883969867
vn 0.92296849191897 -0.17822238515310 0.34112452910216
vn 0.44587322887943 -0.68754070717164 -0.57313596968830
vn 0.81717799948689 0.57590835479345 0.02344534140747
vn -0.93535500765895 -0.29411233577824 -0.19649158656390
# 56 normals

vt 0.08480453491211 0.98040771484375 -0.00003099907190
vt 0.16899871826172 0.95376586914063 -0.00003099907190
vt 0.16838455200195 0.95075988769531 0.01433181762695
vt 0.08449745178223 0.97888183593750 0.00719189643860
vt 0.16656875610352 0.94309997558594 0.02856063842773
vt 0.08358573913574 0.97503662109375 0.01433181762695
vt 0.16354751586914 0.93290710449219 0.04258346557617
vt 0.08206748962402 0.96992492675781 0.02136898040771
vt 0.15934371948242 0.92164611816406 0.05629920959473
vt 0.07995986938477 0.96424865722656 0.02825164794922
vt 0.15399551391602 0.91003417968750 0.06961059570313
vt 0.07727432250977 0.95840454101563 0.03493022918701
vt 0.14753341674805 0.89851379394531 0.08241844177246
vt 0.07403564453125 0.95257568359375 0.04135894775391
vt 0.14001464843750 0.88731384277344 0.09463310241699
vt 0.07026100158691 0.94688415527344 0.04748821258545
vt 0.13148498535156 0.87664794921875 0.10616874694824
vt 0.06598091125488 0.94148254394531 0.05327510833740
vt 0.12200736999512 0.86660766601563 0.11693763732910
vt 0.06122589111328 0.93637084960938 0.05867958068848
vt 0.11165237426758 0.85734558105469 0.12686157226563
vt 0.05602741241455 0.93165588378906 0.06365966796875
vt 0.10049057006836 0.84889221191406 0.13587570190430
vt 0.05042743682861 0.92733764648438 0.06818199157715
vt 0.08860778808594 0.84138488769531 0.14390563964844
vt 0.04446315765381 0.92347717285156 0.07221221923828
vt 0.07608222961426 0.83483886718750 0.15090179443359
vt 0.03817844390869 0.92012023925781 0.07572364807129
vt 0.06300926208496 0.82931518554688 0.15681076049805
vt 0.03161907196045 0.91726684570313 0.07868957519531
vt 0.04948616027832 0.82487487792969 0.16159057617188
vt 0.02483272552490 0.91497802734375 0.08108520507813
vt 0.03560352325439 0.82150268554688 0.16520690917969
vt 0.01786661148071 0.91325378417969 0.08290100097656
vt 0.02146577835083 0.81922912597656 0.16762542724609
vt 0.01077198982239 0.91207885742188 0.08411788940430
vt 0.00717294216156 0.81809997558594 0.16884231567383
vt 0.00359898805618 0.91149902343750 0.08472633361816
vt -0.00717294216156 0.81809997558594 0.16884231567383
vt -0.00359898805618 0.91149902343750 0.08472633361816
vt -0.02146577835083 0.81922912597656 0.16762542724609
vt -0.01077198982239 0.91207885742188 0.08411788940430
vt -0.03560352325439 0.82150268554688 0.16520690917969
vt -0.01786661148071 0.91325378417969 0.08290100097656
vt -0.04948616027832 0.82487487792969 0.16159057617188
vt -0.02483272552490 0.91497802734375 0.08108520507813
vt -0.06300926208496 0.82931518554688 0.15681076049805
vt -0.03161907196045 0.91726684570313 0.07868957519531
vt -0.07608222961426 0.83483886718750 0.15090179443359
vt -0.03817844390869 0.92012023925781 0.07572364807129
vt -0.08860778808594 0.84138488769531 0.14390563964844
vt -0.04446315765381 0.92347717285156 0.07221221923828
vt -0.10049057006836 0.84889221191406 0.13587570190430
vt -0.05042743682861 0.92733764648438 0.06818199157715
vt -0.11165237426758 0.85734558105469 0.12686157226563
vt -0.05602741241455 0.93165588378906 0.06365966796875
vt -0.12200736999512 0.86660766601563 0.11693763732910
vt -0.06122589111328 0.93637084960938 0.05867958068848
vt -0.13148498535156 0.87664794921875 0.10616874694824
vt -0.06598091125488 0.94148254394531 0.05327510833740
vt -0.14001464843750 0.88731384277344 0.09463310241699
vt -0.07026100158691 0.94688415527344 0.04748821258545
vt -0.14753341674805 0.89851379394531 0.08241844177246
vt -0.07403564453125 0.95257568359375 0.04135894775391
vt -0.15399551391602 0.91003417968750 0.06961059570313
vt -0.07727432250977 0.95840454101563 0.03493022918701
vt -0.15934371948242 0.92164611816406 0.05629920959473
vt -0.07995986938477 0.96424865722656 0.02825164794922
vt -0.16354751586914 0.93290710449219 0.04258346557617
vt -0.08206748962402 0.96992492675781 0.02136898040771
vt -0.16656875610352 0.94309997558594 0.02856063842773
vt -0.08358573913574 0.97503662109375 0.01433181762695
vt -0.16838455200195 0.95075988769531 0.01433181762695
vt -0.08449745178223 0.97888183593750 0.00719189643860
vt -0.16899871826172 0.95376586914063 0.00003799982369
vt -0.08480453491211 0.98040771484375 0.00006099976599
vt -0.16838455200195 0.95075988769531 -0.01433181762695
vt -0.08449745178223 0.97888183593750 -0.00719189643860
vt -0.16656875610352 0.94309997558594 -0.02856063842773
vt -0.08358573913574 0.97503662109375 -0.01433181762695
vt -0.16354751586914 0.93290710449219 -0.04258346557617
vt -0.08206748962402 0.96992492675781 -0.02136898040771
vt -0.15934371948242 0.92164611816406 -0.05629920959473
vt -0.07995986938477 0.96424865722656 -0.02825164794922
vt -0.15399551391602 0.91003417968750 -0.06961059570313
vt -0.07727432250977 0.95840454101563 -0.03493022918701
vt -0.14753341674805 0.89851379394531 -0.08241844177246
vt -0.07403564453125 0.95257568359375 -0.04135894775391
vt -0.14001464843750 0.88731384277344 -0.09463310241699
vt -0.07026100158691 0.94688415527344 -0.04748821258545
vt -0.13148498535156 0.87664794921875 -0.10616874694824
vt -0.06598091125488 0.94148254394531 -0.05327510833740
vt -0.12200736999512 0.86660766601563 -0.11693763732910
vt -0.06122589111328 0.93637084960938 -0.05867958068848
vt -0.11165237426758 0.85734558105469 -0.12686157226563
vt -0.05602741241455 0.93165588378906 -0.06365966796875
vt -0.10049057006836 0.84889221191406 -0.13587570190430
vt -0.05042743682861 0.92733764648438 -0.06818199157715
vt -0.08860778808594 0.84138488769531 -0.14390563964844
vt -0.04446315765381 0.92347717285156 -0.07221221923828
vt -0.07608222961426 0.83483886718750 -0.15090179443359
vt -0.03817844390869 0.92012023925781 -0.07572364807129
vt -0.06300926208496 0.82931518554688 -0.15681076049805
vt -0.03161907196045 0.91726684570313 -0.07868957519531
vt -0.04948616027832 0.82487487792969 -0.16159057617188
vt -0.02483272552490 0.91497802734375 -0.08108520507813
vt -0.03560352325439 0.82150268554688 -0.16520690917969
vt -0.01786661148071 0.91325378417969 -0.08290100097656
vt -0.02146577835083 0.81922912597656 -0.16762542724609
vt -0.01077198982239 0.91207885742188 -0.08411788940430
vt -0.00717294216156 0.81809997558594 -0.16884231567383
vt -0.00359898805618 0.91149902343750 -0.08472633361816
vt 0.00717294216156 0.81809997558594 -0.16884231567383
vt 0.00359898805618 0.91149902343750 -0.08472633361816
vt 0.02146577835083 0.81922912597656 -0.16762542724609
vt 0.01077198982239 0.91207885742188 -0.08411788940430
vt 0.03560352325439 0.82150268554688 -0.16520690917969
vt 0.01786661148071 0.91325378417969 -0.08290100097656
vt 0.04948616027832 0.82487487792969 -0.16159057617188
vt 0.02483272552490 0.91497802734375 -0.08108520507813
vt 0.06300926208496 0.82931518554688 -0.15681076049805
vt 0.03161907196045 0.91726684570313 -0.07868957519531
vt 0.07608222961426 0.83483886718750 -0.15090179443359
vt 0.03817844390869 0.92012023925781 -0.07572364807129
vt 0.08860778808594 0.84138488769531 -0.14390563964844
vt 0.04446315765381 0.92347717285156 -0.07221221923828
vt 0.10049057006836 0.84889221191406 -0.13587570190430
vt 0.05042743682861 0.92733764648438 -0.06818199157715
vt 0.11165237426758 0.85734558105469 -0.12686157226563
vt 0.05602741241455 0.93165588378906 -0.06365966796875
vt 0.12200736999512 0.86660766601563 -0.11693763732910
vt 0.06122589111328 0.93637084960938 -0.05867958068848
vt 0.13148498535156 0.87664794921875 -0.10616874694824
vt 0.06598091125488 0.94148254394531 -0.05327510833740
vt 0.14001464843750 0.88731384277344 -0.09463310241699
vt 0.07026100158691 0.94688415527344 -0.04748821258545
vt 0.14753341674805 0.89851379394531 -0.08241844177246
vt 0.07403564453125 0.95257568359375 -0.04135894775391
vt 0.15399551391602 0.91003417968750 -0.06961059570313
vt 0.07727432250977 0.95840454101563 -0.03493022918701
vt 0.15934371948242 0.92164611816406 -0.05629920959473
vt 0.07995986938477 0.96424865722656 -0.02825164794922
vt 0.16354751586914 0.93290710449219 -0.04258346557617
vt 0.08206748962402 0.96992492675781 -0.02136898040771
vt 0.16656875610352 0.94309997558594 -0.02856063842773
vt 0.08358573913574 0.97503662109375 -0.01433181762695
vt 0.16838455200195 0.95075988769531 -0.01433181762695
vt 0.08449745178223 0.97888183593750 -0.00719189643860
vt 0.25197601318359 0.92027282714844 -0.00003099907190
vt 0.25106048583984 0.91580200195313 0.02136898040771
vt 0.24834823608398 0.90440368652344 0.04258346557617
vt 0.24384689331055 0.88928222656250 0.06349182128906
vt 0.23757934570313 0.87257385253906 0.08394050598145
vt 0.22960662841797 0.85542297363281 0.10378646850586
vt 0.21997451782227 0.83843994140625 0.12288665771484
vt 0.20875930786133 0.82199096679688 0.14109420776367
vt 0.19604492187500 0.80636596679688 0.15829467773438
vt 0.18191146850586 0.79173278808594 0.17435073852539
vt 0.16646957397461 0.77828979492188 0.18915176391602
vt 0.14983367919922 0.76609802246094 0.20258331298828
vt 0.13211059570313 0.75529479980469 0.21456146240234
vt 0.11343955993652 0.74591064453125 0.22499465942383
vt 0.09394836425781 0.73802185058594 0.23380661010742
vt 0.07378387451172 0.73165893554688 0.24092864990234
vt 0.05308532714844 0.72688293457031 0.24631881713867
vt 0.03200435638428 0.72367858886719 0.24993133544922
vt 0.01069378852844 0.72206115722656 0.25173950195313
vt -0.01069378852844 0.72206115722656 0.25173950195313
vt -0.03200435638428 0.72367858886719 0.24993133544922
vt -0.05308532714844 0.72688293457031 0.24631881713867
vt -0.07378387451172 0.73165893554688 0.24092864990234
vt -0.09394836425781 0.73802185058594 0.23380661010742
vt -0.11343955993652 0.74591064453125 0.22499465942383
vt -0.13211059570313 0.75529479980469 0.21456146240234
vt -0.14983367919922 0.76609802246094 0.20258331298828
vt -0.16646957397461 0.77828979492188 0.18915176391602
vt -0.18191146850586 0.79173278808594 0.17435073852539
vt -0.19604492187500 0.80636596679688 0.15829467773438
vt -0.20875930786133 0.82199096679688 0.14109420776367
vt -0.21997451782227 0.83843994140625 0.12288665771484
vt -0.22960662841797 0.85542297363281 0.10378646850586
# 181 texture coordinates

o Heart
usemtl Mat
f 2/4/1 22/3/2 34/2/3
f 1/6/5 28/5/6 41/3/7
f 14/8/8 27/7/9 50/5/10
f 45/10/11 17/9/12 21/7/13
f 40/12/14 13/11/15 23/9/16
f 45/14/11 21/13/13 25/11/17
f 33/16/18 53/15/19 43/13/20
f 44/18/21 4/17/22 20/15/23
f 13/20/15 6/19/24 7/17/25
f 37/22/26 40/21/14 28/19/6
f 47/24/27 32/23/28 38/21/29
f 16/26/30 2/25/1 39/23/31
f 41/28/7 28/27/6 46/25/32
f 36/30/33 15/29/34 44/27/21
f 46/32/32 17/31/12 45/29/11
f 28/34/6 40/33/14 54/31/35
f 6/36/24 27/35/9 7/33/25
f 29/38/36 3/37/37 2/35/1
f 11/40/38 49/39/39 52/37/40
f 1/42/5 37/41/26 28/39/6
f 15/44/34 42/43/41 14/41/8
f 47/46/27 51/45/42 5/43/43
f 44/48/21 15/47/34 4/45/22
f 50/50/10 6/49/24 3/47/37
f 37/52/26 34/51/3 40/49/14
f 15/54/34 14/53/8 4/51/22
f 5/56/43 33/55/18 47/53/27
f 48/58/44 8/57/45 29/55/36
f 43/60/20 48/59/44 10/57/46
f 55/62/47 42/61/41 15/59/34
f 12/64/48 15/63/34 36/61/33
f 32/66/28 46/65/32 26/63/49
f 45/68/11 25/67/17 26/65/49
f 54/70/35 17/69/12 46/67/32
f 52/72/40 49/71/39 31/69/50
f 17/74/12 24/73/51 21/71/13
f 24/76/51 42/75/41 21/73/13
f 18/78/52 22/77/2 13/75/15
f 40/80/14 18/79/52 13/77/15
f 38/82/29 35/81/53 51/79/42
f 5/84/43 53/83/19 33/81/18
f 24/86/51 27/85/9 42/83/41
f 33/88/18 43/87/20 11/85/38
f 53/90/19 44/89/21 20/87/23
f 42/92/41 27/91/9 14/89/8
f 35/94/53 25/93/17 21/91/13
f 52/96/40 1/95/5 9/93/54
f 21/98/13 42/97/41 55/95/47
f 16/100/30 29/99/36 2/97/1
f 19/102/55 13/101/15 24/99/51
f 22/104/2 6/103/24 13/101/15
f 39/106/31 2/105/1 34/103/3
f 13/108/15 7/107/25 24/105/51
f 38/110/29 25/109/17 35/107/53
f 4/112/22 14/111/8 50/109/10
f 43/114/20 20/113/23 48/111/44
f 35/116/53 21/115/13 12/113/48
f 34/118/3 22/117/2 18/115/52
f 41/120/7 46/119/32 32/117/28
f 10/122/46 29/121/36 30/119/56
f 3/124/37 6/123/24 22/121/2
f 9/126/54 32/125/28 47/123/27
f 4/128/22 50/127/10 8/125/45
f 54/130/35 40/129/14 23/127/16
f 49/132/39 10/131/46 30/129/56
f 8/134/45 3/133/37 29/131/36
f 34/136/3 18/135/52 40/133/14
f 17/138/12 19/137/55 24/135/51
f 38/140/29 26/139/49 25/137/17
f 51/142/42 36/141/33 5/139/43
f 35/144/53 12/143/48 36/141/33
f 39/146/31 34/145/3 37/143/26
f 36/148/33 44/147/21 53/145/19
f 52/1/40 9/2/54 47/147/27
f 11/3/38 10/150/46 49/149/39
f 52/5/40 31/151/50 1/150/5
f 32/7/28 26/152/49 38/151/29
f 23/9/16 13/153/15 19/152/55
f 28/11/6 54/154/35 46/153/32
f 54/13/35 23/155/16 17/154/12
f 20/15/23 8/156/45 48/155/44
f 11/17/38 43/157/20 10/156/46
f 20/19/23 4/158/22 8/157/45
f 26/21/49 46/159/32 45/158/11
f 5/23/43 36/160/33 53/159/19
f 50/25/10 27/161/9 6/160/24
f 53/27/19 20/162/23 43/161/20
f 21/29/13 55/163/47 12/162/48
f 10/31/46 48/164/44 29/163/36
f 24/33/51 7/165/25 27/164/9
f 49/35/39 30/166/56 31/165/50
f 31/37/50 30/167/56 39/166/31
f 51/39/42 35/168/53 36/167/33
f 12/41/48 55/169/47 15/168/34
f 3/43/37 22/170/2 2/169/1
f 31/45/50 39/171/31 1/170/5
f 41/47/7 32/172/28 9/171/54
f 39/49/31 37/173/26 1/172/5
f 47/51/27 33/174/18 11/173/38
f 23/53/16 19/175/55 17/174/12
f 52/55/40 47/176/27 11/175/38
f 47/57/27 38/177/29 51/176/42
f 8/59/45 50/178/10 3/177/37
f 30/61/56 29/179/36 16/178/30
f 1/63/5 41/180/7 9/179/54
f 30/65/56 16/181/30 39/180/31

