# WaveFront *.obj file (generated by CINEMA 4D)

mtllib ./Apprentice.mtl

v 5.88723119706938 5.48081056695552 5.00142248007812
v 4.15074942040011 12.44445297015570 -1.96221992312206
v 8.34925057959990 5.78778007687794 4.69445297015570
v 6.61276880293063 12.75142248007813 -2.26918943304449
v 8.34925057959990 7.55554702984431 6.46221992312207
v 6.61276880293063 14.51918943304450 -0.50142248007812
v 5.88723119706938 7.24857751992189 6.76918943304449
v 4.15074942040011 14.21221992312207 -0.19445297015569
# 8 vertices

vn 0.00000000000000 0.00000000000000 -1.00000000000000
vn 1.00000000000000 0.00000000000000 0.00000000000000
vn 0.00000000000000 0.00000000000000 1.00000000000000
vn -1.00000000000000 0.00000000000000 0.00000000000000
vn 0.00000000000000 1.00000000000000 0.00000000000000
vn 0.00000000000000 -1.00000000000000 0.00000000000000
# 6 normals

vt 0.00000000000000 -1.00000000000000 0.00000000000000
vt 0.00000000000000 -0.00000000000000 0.00000000000000
vt 1.00000000000000 -0.00000000000000 0.00000000000000
vt 1.00000000000000 -1.00000000000000 0.00000000000000
# 4 texture coordinates

o Cube.3
usemtl Mat.6
f 1/1/1 2/2/1 4/3/1 3/4/1
f 3/1/2 4/2/2 6/3/2 5/4/2
f 5/1/3 6/2/3 8/3/3 7/4/3
f 7/1/4 8/2/4 2/3/4 1/4/4
f 2/1/5 8/2/5 6/3/5 4/4/5
f 7/1/6 1/2/6 3/3/6 5/4/6

v -8.34925057959990 5.29863700671332 3.52095751675815
v -6.61276880293062 13.82732232623776 -1.40308124830290
v -5.88723119706938 4.92267767376224 3.73801773884181
v -4.15074942040010 13.45136299328668 -1.18602102621924
v -5.88723119706938 6.17267767376224 5.90308124830290
v -4.15074942040010 14.70136299328668 0.97904248324186
v -8.34925057959990 6.54863700671332 5.68602102621924
v -6.61276880293062 15.07732232623776 0.76198226115820
# 8 vertices

vn 0.00000000000000 1.00000000000000 0.00000000000000
vn -0.00000000000000 -1.00000000000000 0.00000000000000
# 2 normals

# 0 texture coordinate

o Cube.2
usemtl Mat.6
f 9/1/1 10/2/1 12/3/1 11/4/1
f 11/1/2 12/2/2 14/3/2 13/4/2
f 13/1/3 14/2/3 16/3/3 15/4/3
f 15/1/4 16/2/4 10/3/4 9/4/4
f 10/1/7 16/2/7 14/3/7 12/4/7
f 15/1/8 9/2/8 11/3/8 13/4/8

v -5.00000000000000 0.00000000000000 -2.75000000000000
v -5.00000000000000 15.00000000000000 -2.75000000000000
v 5.00000000000000 0.00000000000000 -2.75000000000000
v 5.00000000000000 15.00000000000000 -2.75000000000000
v 5.00000000000000 0.00000000000000 2.25000000000000
v 5.00000000000000 15.00000000000000 2.25000000000000
v -5.00000000000000 0.00000000000000 2.25000000000000
v -5.00000000000000 15.00000000000000 2.25000000000000
# 8 vertices

# 0 normal

# 0 texture coordinate

o Cube.1
usemtl Mat.4
f 17/1/1 18/2/1 20/3/1 19/4/1

usemtl Mat.7
f 19/1/2 20/2/2 22/3/2 21/4/2
f 23/1/4 24/2/4 18/3/4 17/4/4

usemtl Mat.5
f 21/1/3 22/2/3 24/3/3 23/4/3
f 23/1/6 17/2/6 19/3/6 21/4/6

usemtl default
f 18/1/5 24/2/5 22/3/5 20/4/5

v -5.00000000000000 15.00000000000000 -5.25000000000000
v -5.00000000000000 25.00000000000000 -5.25000000000000
v 5.00000000000000 15.00000000000000 -5.25000000000000
v 5.00000000000000 25.00000000000000 -5.25000000000000
v 5.00000000000000 15.00000000000000 4.75000000000000
v 5.00000000000000 25.00000000000000 4.75000000000000
v -5.00000000000000 15.00000000000000 4.75000000000000
v -5.00000000000000 25.00000000000000 4.75000000000000
# 8 vertices

# 0 normal

# 0 texture coordinate

o Cube
usemtl Mat.3
f 25/1/1 26/2/1 28/3/1 27/4/1
f 26/1/5 32/2/5 30/3/5 28/4/5
f 31/1/6 25/2/6 27/3/6 29/4/6

usemtl Mat.2
f 27/1/2 28/2/2 30/3/2 29/4/2

usemtl Mat
f 29/1/3 30/2/3 32/3/3 31/4/3

usemtl Mat.1
f 31/1/4 32/2/4 26/3/4 25/4/4

