# WaveFront *.obj file (generated by CINEMA 4D)

mtllib ./skyboxc4d.mtl

v -500.00000000000000 -500.00000000000000 -500.00000000000000
v -500.00000000000000 500.00000000000000 -500.00000000000000
v 500.00000000000000 -500.00000000000000 -500.00000000000000
v 500.00000000000000 500.00000000000000 -500.00000000000000
v 500.00000000000000 -500.00000000000000 500.00000000000000
v 500.00000000000000 500.00000000000000 500.00000000000000
v -500.00000000000000 -500.00000000000000 500.00000000000000
v -500.00000000000000 500.00000000000000 500.00000000000000
# 8 vertices

vn 0.00000000000000 0.00000000000000 -1.00000000000000
vn 1.00000000000000 0.00000000000000 0.00000000000000
vn 0.00000000000000 0.00000000000000 1.00000000000000
vn -1.00000000000000 0.00000000000000 0.00000000000000
vn 0.00000000000000 1.00000000000000 0.00000000000000
vn 0.00000000000000 -1.00000000000000 0.00000000000000
# 6 normals

vt 0.25000000000000 -0.62500000000000 0.00000000000000
vt 0.25000000000000 -0.37500000000000 0.00000000000000
vt 0.50000000000000 -0.37500000000000 0.00000000000000
vt 0.50000000000000 -0.62500000000000 0.00000000000000
vt 0.75000000000000 -0.37500000000000 0.00000000000000
vt 0.75000000000000 -0.62500000000000 0.00000000000000
vt 1.00000000000000 -0.37500000000000 0.00000000000000
vt 1.00000000000000 -0.62500000000000 0.00000000000000
vt 0.00000000000000 -0.62500000000000 0.00000000000000
vt 0.00000000000000 -0.37500000000000 0.00000000000000
vt 0.25000000000000 -0.12500000000000 0.00000000000000
vt 0.50000000000000 -0.12500000000000 0.00000000000000
vt 0.25000000000000 -0.87500000000000 0.00000000000000
vt 0.50000000000000 -0.87500000000000 0.00000000000000
# 14 texture coordinates

o Cube
usemtl Mat
f 1/1/1 2/2/1 4/3/1 3/4/1
f 3/4/2 4/3/2 6/5/2 5/6/2
f 5/6/3 6/5/3 8/7/3 7/8/3
f 7/9/4 8/10/4 2/2/4 1/1/4
f 2/2/5 8/11/5 6/12/5 4/3/5
f 7/13/6 1/1/6 3/4/6 5/14/6

